<svg id="Capa_1" enable-background="new 0 0 512 512" height="512" viewBox="0 0 512 512" width="512" xmlns="http://www.w3.org/2000/svg"><g><path d="m481.976 512v-206.768l-245.992-20.016 20.016 226.784z" fill="#00aa95"/><path d="m30.024 512h225.976v-226.784l-225.976 20.016z" fill="#00dd80"/><path d="m481.976 260.184-245.992-20.016 20.016 65.064h225.976z" fill="#007579"/><path d="m30.024 260.184v45.048h225.976v-65.064z" fill="#00aa95"/><path d="m512 175.128h-276.016l20.016 85.056h256z" fill="#00aa95"/><path d="m0 175.128h256v85.056h-256z" fill="#00dd80"/><path d="m300.183 72.577 29.981-1.049c-.66-18.868-8.468-36.655-21.985-50.083-13.921-13.829-32.452-21.445-52.179-21.445l-10.008 15 10.008 15c23.94 0 43.348 18.702 44.183 42.577z" fill="#ff9f22"/><path d="m203.821 21.445c-13.518 13.428-21.326 31.214-21.985 50.083l29.981 1.049c.835-23.875 20.243-42.577 44.183-42.577v-30c-19.727 0-38.258 7.616-52.179 21.445z" fill="#ffd422"/><path d="m421.12 120.084c0-38.623-31.422-70.044-70.044-70.044-40.503 0-75.962 21.993-95.076 54.66l-10.008 70.428 10.008 15h95.076c38.623 0 70.044-31.421 70.044-70.044zm-150.12 40.032c0-44.154 35.922-80.076 80.076-80.076 22.081 0 40.044 17.963 40.044 40.044s-17.963 40.044-40.044 40.044h-80.076z" fill="#ffd422"/><path d="m160.924 50.04c-38.623 0-70.044 31.421-70.044 70.044s31.421 70.044 70.044 70.044h95.076v-85.428c-19.114-32.667-54.573-54.66-95.076-54.66zm-40.044 70.044c0-22.081 17.964-40.044 40.044-40.044 44.154 0 80.076 35.922 80.076 80.076l-80.076.012c-22.081 0-40.044-17.963-40.044-40.044z" fill="#fff47d"/></g></svg>