<svg id="Capa_1" enable-background="new 0 0 512 512" height="512" viewBox="0 0 512 512" width="512" xmlns="http://www.w3.org/2000/svg"><g><path d="m354.5 81-30 55 30 55h30v-110z" fill="#a2c35e"/><path d="m354.5 81h-43.5v-73.5h-110v73.5h-73.5v110h73.5v73.5h110v-73.5h43.5z" fill="#b8d47d"/><path d="m67.5 82.5c-16.57 0-30 13.43-30 30v150h60v-150c0-16.57-13.43-30-30-30z" fill="#fe7453"/><path d="m180.912 414.5 60 60-60 15z" fill="#fe7453"/><path d="m203.5 381-136-118.5v-179.377c0-16.348-12.819-30.166-29.161-30.612-16.953-.462-30.839 13.14-30.839 29.989v214.123c0 7.785 2.019 15.436 5.861 22.207l59.139 130.67-6.818 25 145.23 15v-23.09z" fill="#fc985a"/><path d="m223.382 345.952c-.003 0-26.95-26.946-26.95-26.946l14.48 147.405c8.84 5.14 19.09 8.09 30 8.09v-86.088c0-16.571-6.68-31.601-17.53-42.461z" fill="#fc985a"/><path d="m196.432 319.005-77.277-77.277c-11.559-11.559-30.392-12.267-42.263-1.029-12.317 11.659-12.518 31.101-.604 43.014l104.625 104.628v26.159c0 22.09 12.1 41.5 30 51.91v-104.945c-.001-16.57-5.511-31.6-14.481-42.46z" fill="#fbbd61"/><path d="m240.912 474.5v30h-30l-30-15 30-15z" fill="#7ee3ec"/><path d="m35.682 474.5-8.182 30h183.412v-30z" fill="#bef1f5"/><path d="m444.5 82.5c16.57 0 30 13.43 30 30v150h-60v-150c0-16.57 13.43-30 30-30z" fill="#fe7453"/><path d="m474.256 52.501c-4.42.035-8.615 1.031-12.386 2.789l-13.15 280.93-9.22 113.28 59.139-130.67c3.842-6.771 5.861-14.422 5.861-22.207v-213.485c0-16.636-13.609-30.77-30.244-30.637z" fill="#fe7453"/><path d="m474.5 82.5v218.257c0 5.124-.875 10.21-2.588 15.04l-32.412 133.703 6.818 25-95.115 15-80.115-15 32.412-98.57 141-113.43v-180c0-12.06 7.11-22.45 17.37-27.21 7.46 4.76 12.63 15.16 12.63 27.21z" fill="#fc985a"/><path d="m393.293 241.287c11.71-11.72 30.71-11.72 42.42 0 5.86 5.85 8.79 13.53 8.79 21.21s-2.93 15.36-8.79 21.21l-104.625 104.635v26.158c0 33-27 60-60 60v-86.088c0-16.57 6.68-31.6 17.53-42.46z" fill="#fbbd61"/><path d="m476.318 474.5 8.182 30h-30l-23.182-15 15-15z" fill="#7ee3ec"/><path d="m446.318 474.5 8.182 30h-183.412v-30z" fill="#bef1f5"/><path d="m124.458 236.425c-13.435-13.436-34.785-14.841-49.458-3.906v-141.229c8.729 3.096 15 11.432 15 21.21v90.162c0 4.142 3.358 7.5 7.5 7.5s7.5-3.358 7.5-7.5v-90.162c0-18.371-13.282-33.687-30.745-36.879-3.41-16.982-18.124-30.125-35.707-30.607-10.222-.283-19.88 3.486-27.197 10.606-7.32 7.123-11.351 16.669-11.351 26.88v214.123c0 8.946 2.303 17.789 6.664 25.599l57.89 127.91-4.601 16.868h-24.271c-3.382 0-6.346 2.264-7.236 5.527l-8.182 30c-.615 2.255-.144 4.668 1.275 6.525 1.419 1.858 3.624 2.948 5.961 2.948h213.412c4.142 0 7.5-3.358 7.5-7.5v-116.088c0-18.075-7.007-35.037-19.73-47.763zm108.954 260.575h-196.093l4.091-15h192.001v15zm0-30h-157.911l4.235-15.526c.459-1.684.317-3.476-.403-5.066 0 0-59.336-131.081-59.449-131.278-3.195-5.633-4.884-12.032-4.884-18.507v-214.123c0-6.127 2.419-11.854 6.812-16.128 4.39-4.271 10.191-6.525 16.326-6.363 12.054.33 21.862 10.699 21.862 23.115v179.876c0 .048.012.093.016.141.159 9.777 4.021 18.929 10.967 25.876l104.625 104.625c2.929 2.929 7.678 2.929 10.606 0 2.929-2.929 2.929-7.678 0-10.606l-104.624-104.626c-4.332-4.333-6.672-10.094-6.588-16.222.084-6.125 2.586-11.822 7.045-16.043 8.758-8.29 23.025-7.893 31.804.886l104.224 104.224c9.89 9.892 15.337 23.088 15.337 37.157z"/><path d="m500.649 55.621c-7.317-7.119-16.957-10.884-27.197-10.606-17.583.482-32.297 13.625-35.707 30.607-17.463 3.191-30.745 18.507-30.745 36.878v90.162c0 4.142 3.358 7.5 7.5 7.5s7.5-3.358 7.5-7.5v-90.162c0-9.778 6.271-18.114 15-21.21v141.229c-14.673-10.935-36.022-9.531-49.458 3.906l-104.224 104.224c-12.723 12.725-19.729 29.687-19.729 47.762v116.089c0 4.142 3.358 7.5 7.5 7.5h213.411c2.337 0 4.542-1.09 5.96-2.948 1.419-1.857 1.89-4.271 1.275-6.525l-8.182-30c-.89-3.263-3.854-5.527-7.236-5.527h-24.271l-4.601-16.868 57.89-127.91c4.36-7.81 6.664-16.653 6.664-25.599v-214.123c.001-10.211-4.03-19.757-11.35-26.879zm-25.968 441.379h-196.093v-15h192.002zm22.319-200.377c0 6.475-1.689 12.874-4.884 18.506-.112.198-59.449 131.278-59.449 131.278-.72 1.59-.862 3.382-.403 5.066l4.235 15.527h-157.91v-78.588c0-14.069 5.447-27.265 15.336-37.156l104.224-104.224c8.78-8.778 23.046-9.176 31.804-.886 4.459 4.221 6.961 9.918 7.045 16.043.084 6.128-2.256 11.889-6.588 16.222l-104.625 104.624c-2.929 2.929-2.929 7.678 0 10.606 2.929 2.929 7.678 2.929 10.606 0l104.625-104.625c6.947-6.947 10.808-16.099 10.967-25.876.004-.047.016-.092.016-.141v-179.875c0-12.416 9.808-22.785 21.863-23.115 6.141-.168 11.936 2.092 16.326 6.363 4.393 4.274 6.812 10.001 6.812 16.128z"/><path d="m127.5 198.5h66v66c0 4.142 3.358 7.5 7.5 7.5h110c4.142 0 7.5-3.358 7.5-7.5v-66h66c4.142 0 7.5-3.358 7.5-7.5v-110c0-4.142-3.358-7.5-7.5-7.5h-66v-66c0-4.142-3.358-7.5-7.5-7.5h-110c-4.142 0-7.5 3.358-7.5 7.5v66h-66c-4.142 0-7.5 3.358-7.5 7.5v110c0 4.142 3.358 7.5 7.5 7.5zm7.5-110h66c4.142 0 7.5-3.358 7.5-7.5v-66h95v66c0 4.142 3.358 7.5 7.5 7.5h66v95h-66c-4.142 0-7.5 3.358-7.5 7.5v66h-95v-66c0-4.142-3.358-7.5-7.5-7.5h-66z"/></g></svg>